<svg xmlns="http://www.w3.org/2000/svg" aria-hidden="true" style="position:absolute;width:0;height:0;overflow:hidden">
	<defs>
		<symbol id="icon-eye-off" viewBox="0 0 32 32">
			<path stroke-linecap="round" stroke-linejoin="round" stroke-width="2.88" d="M23.92 23.92A13.43 13.43 0 0 1 16 26.667C6.667 26.667 1.333 16 1.333 16A24.605 24.605 0 0 1 8.08 8.08m5.12-2.427a12.161 12.161 0 0 1 2.8-.32C25.333 5.333 30.667 16 30.667 16a24.646 24.646 0 0 1-2.88 4.253m-8.961-1.426a4.01 4.01 0 0 1-2.855 1.273 3.978 3.978 0 0 1-1.569-.291 3.984 3.984 0 0 1-2.21-2.21 3.995 3.995 0 0 1 .983-4.424M1.333 1.333l29.333 29.333"/>
		</symbol>
		<symbol id="icon-eye" viewBox="0 0 32 32">
			<path stroke-linecap="round" stroke-linejoin="round" stroke-width="2.88" d="M1.333 16S6.666 5.333 16 5.333 30.667 16 30.667 16 25.334 26.667 16 26.667 1.333 16 1.333 16z"/>
			<path stroke-linecap="round" stroke-linejoin="round" stroke-width="2.88" d="M16 20a4 4 0 1 0 0-8 4 4 0 0 0 0 8z"/>
		</symbol>
		<symbol fill="none" xmlns="http://www.w3.org/2000/svg" viewBox="0 0 16 16" id="icon-log-out">
			<path d="M6 14H3.33333C2.97971 14 2.64057 13.8595 2.39052 13.6095C2.14048 13.3594 2 13.0203 2 12.6667V3.33333C2 2.97971 2.14048 2.64057 2.39052 2.39052C2.64057 2.14048 2.97971 2 3.33333 2H6"  stroke-width="1.5" stroke-linecap="round" stroke-linejoin="round"/>
			<path d="M10.667 11.3334L14.0003 8.00002L10.667 4.66669"  stroke-width="1.5" stroke-linecap="round" stroke-linejoin="round"/>
			<path d="M14 8H6"  stroke-width="1.5" stroke-linecap="round" stroke-linejoin="round"/>
		</symbol>
		<symbol id="icon-upload" viewBox="0 0 32 32">
			<path stroke-linecap="round" stroke-linejoin="round" stroke-width="2.88" d="M28 20v5.333A2.668 2.668 0 0 1 25.333 28H6.666a2.668 2.668 0 0 1-2.667-2.667V20M22.666 10.667 15.999 4l-6.667 6.667M16 4v16"/>
		</symbol>
		<symbol fill="none" xmlns="http://www.w3.org/2000/svg" viewBox="0 0 16 16" id="icon-settings">
			<g id="icon-settings" clip-path="url(#clip0_72_3790)">
				<path id="Vector" d="M8 10C9.10457 10 10 9.10457 10 8C10 6.89543 9.10457 6 8 6C6.89543 6 6 6.89543 6 8C6 9.10457 6.89543 10 8 10Z"  stroke-width="1.5" stroke-linecap="round" stroke-linejoin="round"/>
				<path id="Vector_2" d="M12.9337 10C12.8449 10.2011 12.8184 10.4242 12.8577 10.6404C12.8969 10.8567 13 11.0562 13.1537 11.2134L13.1937 11.2534C13.3176 11.3772 13.416 11.5242 13.4831 11.6861C13.5502 11.848 13.5847 12.0215 13.5847 12.1967C13.5847 12.3719 13.5502 12.5454 13.4831 12.7073C13.416 12.8691 13.3176 13.0162 13.1937 13.14C13.0698 13.264 12.9228 13.3623 12.7609 13.4294C12.599 13.4965 12.4255 13.5311 12.2503 13.5311C12.0751 13.5311 11.9016 13.4965 11.7397 13.4294C11.5779 13.3623 11.4308 13.264 11.307 13.14L11.267 13.1C11.1099 12.9463 10.9103 12.8432 10.6941 12.804C10.4778 12.7648 10.2547 12.7913 10.0537 12.88C9.85648 12.9645 9.68832 13.1049 9.56986 13.2837C9.45141 13.4626 9.38785 13.6722 9.38699 13.8867V14C9.38699 14.3536 9.24652 14.6928 8.99647 14.9428C8.74642 15.1929 8.40728 15.3334 8.05366 15.3334C7.70004 15.3334 7.3609 15.1929 7.11085 14.9428C6.8608 14.6928 6.72033 14.3536 6.72033 14V13.94C6.71516 13.7194 6.64374 13.5054 6.51533 13.3258C6.38693 13.1463 6.20748 13.0095 6.00033 12.9334C5.79925 12.8446 5.5762 12.8181 5.35993 12.8574C5.14367 12.8966 4.94411 12.9997 4.78699 13.1534L4.74699 13.1934C4.62316 13.3173 4.47611 13.4157 4.31425 13.4828C4.15238 13.5499 3.97888 13.5844 3.80366 13.5844C3.62844 13.5844 3.45494 13.5499 3.29307 13.4828C3.13121 13.4157 2.98416 13.3173 2.86033 13.1934C2.73636 13.0695 2.63801 12.9225 2.57091 12.7606C2.50381 12.5987 2.46928 12.4252 2.46928 12.25C2.46928 12.0748 2.50381 11.9013 2.57091 11.7394C2.63801 11.5776 2.73636 11.4305 2.86033 11.3067L2.90033 11.2667C3.05402 11.1096 3.15712 10.91 3.19633 10.6937C3.23554 10.4775 3.20907 10.2544 3.12033 10.0534C3.03582 9.85618 2.8955 9.68801 2.71664 9.56956C2.53778 9.45111 2.32818 9.38754 2.11366 9.38669H2.00033C1.6467 9.38669 1.30757 9.24621 1.05752 8.99616C0.807468 8.74611 0.666992 8.40698 0.666992 8.05335C0.666992 7.69973 0.807468 7.36059 1.05752 7.11055C1.30757 6.8605 1.6467 6.72002 2.00033 6.72002H2.06033C2.28099 6.71486 2.495 6.64343 2.67453 6.51503C2.85405 6.38662 2.9908 6.20718 3.06699 6.00002C3.15574 5.79894 3.18221 5.57589 3.143 5.35963C3.10378 5.14337 3.00068 4.94381 2.84699 4.78669L2.80699 4.74669C2.68302 4.62286 2.58468 4.47581 2.51758 4.31394C2.45048 4.15208 2.41594 3.97857 2.41594 3.80335C2.41594 3.62813 2.45048 3.45463 2.51758 3.29277C2.58468 3.1309 2.68302 2.98385 2.80699 2.86002C2.93082 2.73605 3.07787 2.63771 3.23974 2.57061C3.4016 2.50351 3.57511 2.46897 3.75033 2.46897C3.92555 2.46897 4.09905 2.50351 4.26091 2.57061C4.42278 2.63771 4.56983 2.73605 4.69366 2.86002L4.73366 2.90002C4.89078 3.05371 5.09034 3.15681 5.3066 3.19602C5.52286 3.23524 5.74592 3.20876 5.94699 3.12002H6.00033C6.19751 3.03551 6.36567 2.89519 6.48412 2.71633C6.60257 2.53747 6.66614 2.32788 6.66699 2.11335V2.00002C6.66699 1.6464 6.80747 1.30726 7.05752 1.05721C7.30757 0.807163 7.6467 0.666687 8.00033 0.666687C8.35395 0.666687 8.69309 0.807163 8.94314 1.05721C9.19318 1.30726 9.33366 1.6464 9.33366 2.00002V2.06002C9.33452 2.27454 9.39808 2.48414 9.51653 2.663C9.63498 2.84186 9.80315 2.98218 10.0003 3.06669C10.2014 3.15543 10.4245 3.1819 10.6407 3.14269C10.857 3.10348 11.0565 3.00038 11.2137 2.84669L11.2537 2.80669C11.3775 2.68272 11.5245 2.58437 11.6864 2.51727C11.8483 2.45018 12.0218 2.41564 12.197 2.41564C12.3722 2.41564 12.5457 2.45018 12.7076 2.51727C12.8694 2.58437 13.0165 2.68272 13.1403 2.80669C13.2643 2.93052 13.3626 3.07757 13.4297 3.23943C13.4968 3.4013 13.5314 3.5748 13.5314 3.75002C13.5314 3.92524 13.4968 4.09874 13.4297 4.26061C13.3626 4.42247 13.2643 4.56952 13.1403 4.69335L13.1003 4.73335C12.9466 4.89047 12.8435 5.09003 12.8043 5.30629C12.7651 5.52256 12.7916 5.74561 12.8803 5.94669V6.00002C12.9648 6.1972 13.1052 6.36537 13.284 6.48382C13.4629 6.60227 13.6725 6.66583 13.887 6.66669H14.0003C14.3539 6.66669 14.6931 6.80716 14.9431 7.05721C15.1932 7.30726 15.3337 7.6464 15.3337 8.00002C15.3337 8.35364 15.1932 8.69278 14.9431 8.94283C14.6931 9.19288 14.3539 9.33335 14.0003 9.33335H13.9403C13.7258 9.33421 13.5162 9.39778 13.3374 9.51623C13.1585 9.63468 13.0182 9.80284 12.9337 10Z"  stroke-width="1.5" stroke-linecap="round" stroke-linejoin="round"/>
			</g>
			<defs>
				<clipPath id="clip0_72_3790">
					<rect width="16" height="16" fill="white"/>
				</clipPath>
			</defs>
		</symbol>
		<symbol id="icon-edit" viewBox="0 0 32 32">
			<path stroke-linecap="round" stroke-linejoin="round" stroke-width="3.6" d="M22.666 4a3.766 3.766 0 0 1 4.109-.817 3.781 3.781 0 0 1 2.041 2.04 3.764 3.764 0 0 1 0 2.886 3.756 3.756 0 0 1-.817 1.223l-18 18-7.333 2 2-7.333 18-18z"/>
		</symbol>
		<symbol id="icon-trash" viewBox="0 0 32 32">
			<path stroke-linecap="round" stroke-linejoin="round" stroke-width="3" d="M12 4h8"/>
			<path stroke-linecap="round" stroke-linejoin="round" stroke-width="3.6" d="M4 8h24m-2.667 0-.935 14.026c-.14 2.104-.21 3.156-.665 3.954a4.007 4.007 0 0 1-1.731 1.62c-.826.4-1.881.4-3.99.4h-4.025c-2.109 0-3.163 0-3.99-.4a4.001 4.001 0 0 1-1.731-1.62c-.455-.798-.525-1.85-.665-3.954L6.666 8"/>
		</symbol>
		<symbol id="icon-x" viewBox="0 0 32 32">
			<path stroke-linecap="round" stroke-linejoin="round" stroke-width="3.429" d="M24 8 8 24M8 8l16 16"/>
		</symbol>
		<symbol id="icon-pie-chart" viewBox="0 0 32 32">
			<path fill="none" stroke="#323f47" stroke-linecap="round" stroke-linejoin="round" stroke-width="2.667" d="M22.933 18.667c.369 0 .554 0 .704.082a.713.713 0 0 1 .293.324c.067.157.05.324.016.659a10.665 10.665 0 0 1-12.694 9.397c-2.069-.412-3.97-1.428-5.462-2.919s-2.508-3.392-2.919-5.461a10.666 10.666 0 0 1 9.397-12.694c.334-.034.502-.05.659.016.13.055.257.17.324.293.082.15.082.334.082.704v8.533c0 .373 0 .56.073.703a.67.67 0 0 0 .291.291c.143.073.329.073.703.073h8.533z" style="stroke:var(--color1, #323f47)"/>
			<path fill="none" stroke="#9be1a0" stroke-linecap="round" stroke-linejoin="round" stroke-width="2.667" d="M18.667 3.733c0-.369 0-.554.082-.704a.713.713 0 0 1 .324-.293c.157-.067.324-.05.659-.016a10.67 10.67 0 0 1 9.549 9.549c.033.334.05.502-.016.659a.704.704 0 0 1-.293.324c-.15.082-.334.082-.704.082h-8.533c-.373 0-.56 0-.703-.073a.67.67 0 0 1-.291-.291c-.073-.143-.073-.329-.073-.703V3.734z" style="stroke:var(--color2, #9be1a0)"/>
		</symbol>
		<symbol id="icon-chevron-down" viewBox="0 0 32 32">
			<path fill="none" stroke-linecap="round" stroke-linejoin="round" stroke-width="3.2" d="m8 12 8 8 8-8"/>
		</symbol>
		<symbol id="icon-chevron-up" viewBox="0 0 32 32">
			<path fill="none" stroke-linecap="round" stroke-linejoin="round" stroke-width="3.2" d="m8 20 8-8 8 8"/>
		</symbol>
		<symbol id="icon-minus-btn" viewBox="0 0 32 32">
			<path stroke-width="1.116" d="M16 .558C24.528.558 31.442 7.472 31.442 16S24.528 31.442 16 31.442.558 24.528.558 16 7.472.558 16 .558z"/>
			<path stroke-linecap="round" stroke-linejoin="round" stroke-width="1.339" d="M10.286 16h11.429"/>
		</symbol>
		<symbol id="icon-plus-btn" viewBox="0 0 32 32">
			<path stroke-width="1.116" d="M16 .558C24.528.558 31.442 7.472 31.442 16S24.528 31.442 16 31.442.558 24.528.558 16 7.472.558 16 .558z"/>
			<path stroke-linecap="round" stroke-linejoin="round" stroke-width="1.339" d="M16 10.286v11.429M10.286 16h11.429"/>
		</symbol>
		<symbol id="icon-plus" viewBox="0 0 32 32">
			<path fill="none" stroke-linecap="round" stroke-linejoin="round" stroke-width="2.667" d="M16 6.667v18.667M6.667 16h18.667"/>
		</symbol>
		<symbol id="icon-water-glass-fill" viewBox="0 0 31 32">
			<path fill="#9be1a0" d="M26.955 5.226c-.095-.321-.254-.616-.468-.868s-.477-.452-.772-.589a2.087 2.087 0 0 0-.937-.21H6.562a1.83 1.83 0 0 0-.937.197c-.301.139-.57.345-.785.604a2.36 2.36 0 0 0-.468.866 2.392 2.392 0 0 0-.089.984l2.076 18.377a5.202 5.202 0 0 0 1.633 3.255 4.78 4.78 0 0 0 3.253 1.313h8.861a4.804 4.804 0 0 0 3.266-1.313 5.316 5.316 0 0 0 1.62-3.255l1.127-10.331v-.158l.873-7.876a2.724 2.724 0 0 0-.038-.998zM14.17 25.375h-1.266a3.573 3.573 0 0 1-2.215-.945 3.744 3.744 0 0 1-1.139-2.192l-.304-2.258c-.039-.344.053-.691.258-.965s.504-.455.835-.503.667.04.936.246.45.512.503.854l.304 2.232c.034.244.151.467.329.63a1 1 0 0 0 .646.276h1.266c.336 0 .658.138.895.384s.371.58.371.928-.133.682-.371.928a1.242 1.242 0 0 1-.895.384h-.152zm10.127-12.116c-2.671.538-4.949.643-7.367-1.313-3-2.455-6.633-1.667-10.127-.381L6.17 5.999a.41.41 0 0 1 0-.171.337.337 0 0 1 .089-.144.257.257 0 0 1 .127-.105.262.262 0 0 1 .152 0h18.38a.53.53 0 0 1 .127.105.314.314 0 0 1 .076.144.304.304 0 0 1 0 .184l-.823 7.246z" style="fill:var(--color2, #9be1a0)"/>
		</symbol>
		<symbol fill="none" xmlns="http://www.w3.org/2000/svg" viewBox="0 0 512 168" id="google-logo">
			<g clip-path="url(#clip0_497_29)">
				<path d="M496.052 102.672L510.256 112.141C505.646 118.931 494.62 130.581 475.557 130.581C451.885 130.581 434.256 112.266 434.256 88.967C434.256 64.174 452.072 47.354 473.564 47.354C495.18 47.354 505.77 64.547 509.197 73.829L511.066 78.564L455.374 101.613C459.61 109.961 466.214 114.197 475.557 114.197C484.902 114.197 491.38 109.587 496.052 102.672ZM452.384 87.66L489.574 72.21C487.518 67.04 481.414 63.365 474.124 63.365C464.843 63.365 451.948 71.588 452.384 87.66Z" fill="#FF302F"/>
				<path d="M407.407 4.93103H425.347V126.781H407.407V4.93103Z" fill="#20B15A"/>
				<path d="M379.125 50.593H396.443V124.6C396.443 155.311 378.315 167.957 356.885 167.957C336.702 167.957 324.555 154.377 320.007 143.351L335.892 136.747C338.757 143.537 345.672 151.574 356.885 151.574C370.652 151.574 379.125 143.039 379.125 127.092V121.112H378.502C374.39 126.095 366.541 130.58 356.574 130.58C335.767 130.58 316.704 112.452 316.704 89.092C316.704 65.606 335.767 47.292 356.574 47.292C366.479 47.292 374.39 51.715 378.502 56.574H379.125V50.593ZM380.37 89.092C380.37 74.39 370.59 63.675 358.131 63.675C345.547 63.675 334.957 74.39 334.957 89.092C334.957 103.606 345.547 114.134 358.131 114.134C370.591 114.197 380.371 103.606 380.371 89.092" fill="#3686F7"/>
				<path d="M218.216 88.78C218.216 112.764 199.528 130.393 176.603 130.393C153.679 130.393 134.99 112.702 134.99 88.78C134.99 64.672 153.679 47.105 176.603 47.105C199.528 47.105 218.216 64.672 218.216 88.78ZM200.026 88.78C200.026 73.83 189.186 63.55 176.603 63.55C164.02 63.55 153.18 73.83 153.18 88.78C153.18 103.606 164.02 114.01 176.603 114.01C189.187 114.01 200.026 103.606 200.026 88.78Z" fill="#FF302F"/>
				<path d="M309.105 88.967C309.105 112.951 290.416 130.58 267.492 130.58C244.567 130.58 225.879 112.95 225.879 88.967C225.879 64.859 244.567 47.354 267.492 47.354C290.416 47.354 309.105 64.797 309.105 88.967ZM290.852 88.967C290.852 74.017 280.013 63.737 267.429 63.737C254.845 63.737 244.006 74.017 244.006 88.967C244.006 103.793 254.846 114.197 267.429 114.197C280.075 114.197 290.852 103.731 290.852 88.967Z" fill="#FFBA40"/>
				<path d="M66.59 112.328C40.488 112.328 20.056 91.2721 20.056 65.1701C20.056 39.0691 40.488 18.0131 66.59 18.0131C80.669 18.0131 90.947 23.5571 98.547 30.6591L111.069 18.1381C100.479 7.98406 86.338 0.258057 66.59 0.258057C30.833 0.259057 0.744019 29.4141 0.744019 65.1701C0.744019 100.926 30.833 130.082 66.59 130.082C85.902 130.082 100.479 123.728 111.879 111.892C123.59 100.18 127.203 83.7341 127.203 70.4031C127.203 66.2291 126.705 61.9311 126.144 58.7541H66.59V76.0721H109.013C107.767 86.9121 104.341 94.3251 99.295 99.3701C93.19 105.538 83.535 112.328 66.59 112.328Z" fill="#3686F7"/>
			</g>
			<defs>
				<clipPath id="clip0_497_29">
					<rect width="512" height="168" fill="white"/>
				</clipPath>
			</defs>
		</symbol>
	</defs>
</svg>
