<svg xmlns="http://www.w3.org/2000/svg" aria-hidden="true"
  style="position:absolute;width:0;height:0;overflow:hidden">
  <defs>
    <symbol id="icon-eye-off" viewBox="0 0 32 32">
      <path stroke-linecap="round" stroke-linejoin="round" stroke-width="2.88"
        d="M23.92 23.92A13.43 13.43 0 0 1 16 26.667C6.667 26.667 1.333 16 1.333 16A24.605 24.605 0 0 1 8.08 8.08m5.12-2.427a12.161 12.161 0 0 1 2.8-.32C25.333 5.333 30.667 16 30.667 16a24.646 24.646 0 0 1-2.88 4.253m-8.961-1.426a4.01 4.01 0 0 1-2.855 1.273 3.978 3.978 0 0 1-1.569-.291 3.984 3.984 0 0 1-2.21-2.21 3.995 3.995 0 0 1 .983-4.424M1.333 1.333l29.333 29.333" />
    </symbol>
    <symbol id="icon-eye" viewBox="0 0 32 32">
      <path stroke-linecap="round" stroke-linejoin="round" stroke-width="2.88"
        d="M1.333 16S6.666 5.333 16 5.333 30.667 16 30.667 16 25.334 26.667 16 26.667 1.333 16 1.333 16z" />
      <path stroke-linecap="round" stroke-linejoin="round" stroke-width="2.88"
        d="M16 20a4 4 0 1 0 0-8 4 4 0 0 0 0 8z" />
    </symbol>
    <symbol id="icon-log-out" viewBox="0 0 32 32">
      <path stroke-linecap="round" stroke-linejoin="round" stroke-width="3"
        d="M12 28H6.667A2.668 2.668 0 0 1 4 25.333V6.666a2.668 2.668 0 0 1 2.667-2.667H12M21.334 22.667 28.001 16l-6.667-6.667M28 16H12" />
    </symbol>
    <symbol id="icon-upload" viewBox="0 0 32 32">
      <path stroke-linecap="round" stroke-linejoin="round" stroke-width="2.88"
        d="M28 20v5.333A2.668 2.668 0 0 1 25.333 28H6.666a2.668 2.668 0 0 1-2.667-2.667V20M22.666 10.667 15.999 4l-6.667 6.667M16 4v16" />
    </symbol>
    <symbol id="icon-settings" viewBox="0 0 32 32">
      <path stroke-linecap="round" stroke-linejoin="round" stroke-width="3"
        d="M16 20a4 4 0 1 0 0-8 4 4 0 0 0 0 8z" />
      <path stroke-linecap="round" stroke-linejoin="round" stroke-width="3"
        d="M25.867 20a2.205 2.205 0 0 0 .44 2.427l.08.08a2.672 2.672 0 0 1 .782 1.886 2.672 2.672 0 0 1-1.648 2.465 2.672 2.672 0 0 1-2.907-.579l-.08-.08a2.197 2.197 0 0 0-2.427-.44 2.2 2.2 0 0 0-1.334 2.013v.227a2.668 2.668 0 0 1-5.334 0v-.12a2.196 2.196 0 0 0-1.44-2.013 2.205 2.205 0 0 0-2.427.44l-.08.08a2.672 2.672 0 0 1-1.886.782 2.672 2.672 0 0 1-2.465-1.648 2.672 2.672 0 0 1 .579-2.907l.08-.08a2.197 2.197 0 0 0 .44-2.427 2.2 2.2 0 0 0-2.013-1.334H4a2.668 2.668 0 0 1 0-5.334h.12a2.196 2.196 0 0 0 2.013-1.44 2.2 2.2 0 0 0-.44-2.427l-.08-.08a2.666 2.666 0 0 1 .865-4.352 2.668 2.668 0 0 1 2.908.579l.08.08a2.197 2.197 0 0 0 2.427.44H12a2.2 2.2 0 0 0 1.334-2.013v-.227a2.668 2.668 0 0 1 5.334 0v.12a2.203 2.203 0 0 0 1.334 2.013 2.208 2.208 0 0 0 2.427-.44l.08-.08a2.672 2.672 0 0 1 1.886-.782 2.672 2.672 0 0 1 2.465 1.647 2.668 2.668 0 0 1-.579 2.907l-.08.08a2.197 2.197 0 0 0-.44 2.427v.107a2.2 2.2 0 0 0 2.013 1.334h.227a2.668 2.668 0 0 1 0 5.334h-.12a2.203 2.203 0 0 0-2.013 1.334z" />
    </symbol>
    <symbol id="icon-edit" viewBox="0 0 32 32">
      <path stroke-linecap="round" stroke-linejoin="round" stroke-width="3.6"
        d="M22.666 4a3.766 3.766 0 0 1 4.109-.817 3.781 3.781 0 0 1 2.041 2.04 3.764 3.764 0 0 1 0 2.886 3.756 3.756 0 0 1-.817 1.223l-18 18-7.333 2 2-7.333 18-18z" />
    </symbol>
    <symbol id="icon-trash" viewBox="0 0 32 32">
      <path stroke-linecap="round" stroke-linejoin="round" stroke-width="3" d="M12 4h8" />
      <path stroke-linecap="round" stroke-linejoin="round" stroke-width="3.6"
        d="M4 8h24m-2.667 0-.935 14.026c-.14 2.104-.21 3.156-.665 3.954a4.007 4.007 0 0 1-1.731 1.62c-.826.4-1.881.4-3.99.4h-4.025c-2.109 0-3.163 0-3.99-.4a4.001 4.001 0 0 1-1.731-1.62c-.455-.798-.525-1.85-.665-3.954L6.666 8" />
    </symbol>
    <symbol id="icon-x" viewBox="0 0 32 32">
      <path stroke-linecap="round" stroke-linejoin="round" stroke-width="3.429"
        d="M24 8 8 24M8 8l16 16" />
    </symbol>
    <symbol id="icon-pie-chart" viewBox="0 0 32 32">
      <path fill="none" stroke="#323f47" stroke-linecap="round" stroke-linejoin="round"
        stroke-width="2.667"
        d="M22.933 18.667c.369 0 .554 0 .704.082a.713.713 0 0 1 .293.324c.067.157.05.324.016.659a10.665 10.665 0 0 1-12.694 9.397c-2.069-.412-3.97-1.428-5.462-2.919s-2.508-3.392-2.919-5.461a10.666 10.666 0 0 1 9.397-12.694c.334-.034.502-.05.659.016.13.055.257.17.324.293.082.15.082.334.082.704v8.533c0 .373 0 .56.073.703a.67.67 0 0 0 .291.291c.143.073.329.073.703.073h8.533z"
        style="stroke:var(--color1, #323f47)" />
      <path fill="none" stroke="#9be1a0" stroke-linecap="round" stroke-linejoin="round"
        stroke-width="2.667"
        d="M18.667 3.733c0-.369 0-.554.082-.704a.713.713 0 0 1 .324-.293c.157-.067.324-.05.659-.016a10.67 10.67 0 0 1 9.549 9.549c.033.334.05.502-.016.659a.704.704 0 0 1-.293.324c-.15.082-.334.082-.704.082h-8.533c-.373 0-.56 0-.703-.073a.67.67 0 0 1-.291-.291c-.073-.143-.073-.329-.073-.703V3.734z"
        style="stroke:var(--color2, #9be1a0)" />
    </symbol>
    <symbol id="icon-chevron-down" viewBox="0 0 32 32">
      <path fill="none" stroke-linecap="round" stroke-linejoin="round" stroke-width="3.2"
        d="m8 12 8 8 8-8" />
    </symbol>
    <symbol id="icon-chevron-up" viewBox="0 0 32 32">
      <path fill="none" stroke-linecap="round" stroke-linejoin="round" stroke-width="3.2"
        d="m8 20 8-8 8 8" />
    </symbol>
    <symbol id="icon-minus-btn" viewBox="0 0 32 32">
      <path stroke-width="1.116"
        d="M16 .558C24.528.558 31.442 7.472 31.442 16S24.528 31.442 16 31.442.558 24.528.558 16 7.472.558 16 .558z" />
      <path stroke-linecap="round" stroke-linejoin="round" stroke-width="1.339"
        d="M10.286 16h11.429" />
    </symbol>
    <symbol id="icon-plus-btn" viewBox="0 0 32 32">
      <path stroke-width="0"
        d="M16 .558C24.528.558 31.442 7.472 31.442 16S24.528 31.442 16 31.442.558 24.528.558 16 7.472.558 16 .558z" />
      <path stroke-linecap="round" stroke-linejoin="round" stroke-width="1.339"
        d="M16 10.286v11.429M10.286 16h11.429" />
    </symbol>
    <symbol id="icon-plus" viewBox="0 0 32 32">
      <path fill="none" stroke-linecap="round" stroke-linejoin="round" stroke-width="2.667"
        d="M16 6.667v18.667M6.667 16h18.667" />
    </symbol>
    <symbol id="icon-water-glass-fill" viewBox="0 0 31 32">
      <path fill="#9be1a0"
        d="M26.955 5.226c-.095-.321-.254-.616-.468-.868s-.477-.452-.772-.589a2.087 2.087 0 0 0-.937-.21H6.562a1.83 1.83 0 0 0-.937.197c-.301.139-.57.345-.785.604a2.36 2.36 0 0 0-.468.866 2.392 2.392 0 0 0-.089.984l2.076 18.377a5.202 5.202 0 0 0 1.633 3.255 4.78 4.78 0 0 0 3.253 1.313h8.861a4.804 4.804 0 0 0 3.266-1.313 5.316 5.316 0 0 0 1.62-3.255l1.127-10.331v-.158l.873-7.876a2.724 2.724 0 0 0-.038-.998zM14.17 25.375h-1.266a3.573 3.573 0 0 1-2.215-.945 3.744 3.744 0 0 1-1.139-2.192l-.304-2.258c-.039-.344.053-.691.258-.965s.504-.455.835-.503.667.04.936.246.45.512.503.854l.304 2.232c.034.244.151.467.329.63a1 1 0 0 0 .646.276h1.266c.336 0 .658.138.895.384s.371.58.371.928-.133.682-.371.928a1.242 1.242 0 0 1-.895.384h-.152zm10.127-12.116c-2.671.538-4.949.643-7.367-1.313-3-2.455-6.633-1.667-10.127-.381L6.17 5.999a.41.41 0 0 1 0-.171.337.337 0 0 1 .089-.144.257.257 0 0 1 .127-.105.262.262 0 0 1 .152 0h18.38a.53.53 0 0 1 .127.105.314.314 0 0 1 .076.144.304.304 0 0 1 0 .184l-.823 7.246z"
        style="fill:var(--color2, #9be1a0)" />
    </symbol>
     <symbol fill="none" xmlns="http://www.w3.org/2000/svg" viewBox="0 0 512 168" id="google-logo">
    <g clip-path="url(#clip0_497_29)">
      <path
        d="M496.052 102.672L510.256 112.141C505.646 118.931 494.62 130.581 475.557 130.581C451.885 130.581 434.256 112.266 434.256 88.967C434.256 64.174 452.072 47.354 473.564 47.354C495.18 47.354 505.77 64.547 509.197 73.829L511.066 78.564L455.374 101.613C459.61 109.961 466.214 114.197 475.557 114.197C484.902 114.197 491.38 109.587 496.052 102.672ZM452.384 87.66L489.574 72.21C487.518 67.04 481.414 63.365 474.124 63.365C464.843 63.365 451.948 71.588 452.384 87.66Z"
        fill="#FF302F"></path>
      <path d="M407.407 4.93103H425.347V126.781H407.407V4.93103Z" fill="#20B15A"></path>
      <path
        d="M379.125 50.593H396.443V124.6C396.443 155.311 378.315 167.957 356.885 167.957C336.702 167.957 324.555 154.377 320.007 143.351L335.892 136.747C338.757 143.537 345.672 151.574 356.885 151.574C370.652 151.574 379.125 143.039 379.125 127.092V121.112H378.502C374.39 126.095 366.541 130.58 356.574 130.58C335.767 130.58 316.704 112.452 316.704 89.092C316.704 65.606 335.767 47.292 356.574 47.292C366.479 47.292 374.39 51.715 378.502 56.574H379.125V50.593ZM380.37 89.092C380.37 74.39 370.59 63.675 358.131 63.675C345.547 63.675 334.957 74.39 334.957 89.092C334.957 103.606 345.547 114.134 358.131 114.134C370.591 114.197 380.371 103.606 380.371 89.092"
        fill="#3686F7"></path>
      <path
        d="M218.216 88.78C218.216 112.764 199.528 130.393 176.603 130.393C153.679 130.393 134.99 112.702 134.99 88.78C134.99 64.672 153.679 47.105 176.603 47.105C199.528 47.105 218.216 64.672 218.216 88.78ZM200.026 88.78C200.026 73.83 189.186 63.55 176.603 63.55C164.02 63.55 153.18 73.83 153.18 88.78C153.18 103.606 164.02 114.01 176.603 114.01C189.187 114.01 200.026 103.606 200.026 88.78Z"
        fill="#FF302F"></path>
      <path
        d="M309.105 88.967C309.105 112.951 290.416 130.58 267.492 130.58C244.567 130.58 225.879 112.95 225.879 88.967C225.879 64.859 244.567 47.354 267.492 47.354C290.416 47.354 309.105 64.797 309.105 88.967ZM290.852 88.967C290.852 74.017 280.013 63.737 267.429 63.737C254.845 63.737 244.006 74.017 244.006 88.967C244.006 103.793 254.846 114.197 267.429 114.197C280.075 114.197 290.852 103.731 290.852 88.967Z"
        fill="#FFBA40"></path>
      <path
        d="M66.59 112.328C40.488 112.328 20.056 91.2721 20.056 65.1701C20.056 39.0691 40.488 18.0131 66.59 18.0131C80.669 18.0131 90.947 23.5571 98.547 30.6591L111.069 18.1381C100.479 7.98406 86.338 0.258057 66.59 0.258057C30.833 0.259057 0.744019 29.4141 0.744019 65.1701C0.744019 100.926 30.833 130.082 66.59 130.082C85.902 130.082 100.479 123.728 111.879 111.892C123.59 100.18 127.203 83.7341 127.203 70.4031C127.203 66.2291 126.705 61.9311 126.144 58.7541H66.59V76.0721H109.013C107.767 86.9121 104.341 94.3251 99.295 99.3701C93.19 105.538 83.535 112.328 66.59 112.328Z"
        fill="#3686F7"></path>
    </g>
    <defs>
      <clipPath id="clip0_497_29">
        <rect width="512" height="168" fill="white"></rect>
      </clipPath>
    </defs>
  </symbol>
  </defs>
</svg>